<svg xmlns="http://www.w3.org/2000/svg" xmlns:xlink="http://www.w3.org/1999/xlink" width="500" zoomAndPan="magnify" viewBox="0 0 375 374.999991" height="500" preserveAspectRatio="xMidYMid meet" version="1.0"><defs><g/><clipPath id="accff219b1"><path d="M 127.597656 119 L 160 119 L 160 225 L 127.597656 225 Z M 127.597656 119 " clip-rule="nonzero"/></clipPath><clipPath id="4ea4259731"><path d="M 218 119 L 250.597656 119 L 250.597656 225 L 218 225 Z M 218 119 " clip-rule="nonzero"/></clipPath><clipPath id="42ed3f6dce"><path d="M 191 114.929688 L 218 114.929688 L 218 141 L 191 141 Z M 191 114.929688 " clip-rule="nonzero"/></clipPath><clipPath id="55511495ad"><path d="M 161 203 L 188 203 L 188 229.679688 L 161 229.679688 Z M 161 203 " clip-rule="nonzero"/></clipPath></defs><rect x="-37.5" width="450" fill="#ffffff" y="-37.499999" height="449.999989" fill-opacity="1"/><rect x="-37.5" width="450" fill="#ffffff" y="-37.499999" height="449.999989" fill-opacity="1"/><g clip-path="url(#accff219b1)"><path fill="#151f28" d="M 151.375 158.453125 L 151.375 135.285156 C 151.375 132.117188 152.71875 130.40625 156.257812 130.40625 L 159.84375 130.40625 L 159.84375 119.429688 L 152.589844 119.429688 C 146.371094 119.429688 137.957031 123.207031 137.957031 134.066406 L 137.957031 156.015625 C 137.957031 162.113281 133.078125 165.769531 128.203125 165.769531 C 127.972656 165.769531 127.769531 165.820312 127.597656 165.914062 L 127.597656 177.828125 C 127.773438 177.917969 127.972656 177.96875 128.203125 177.96875 C 133.082031 177.96875 137.957031 181.628906 137.957031 187.722656 L 137.957031 209.679688 C 137.957031 220.535156 146.371094 224.3125 152.589844 224.3125 L 159.839844 224.3125 L 159.839844 213.339844 L 156.25 213.339844 C 152.714844 213.339844 151.371094 211.632812 151.371094 208.457031 L 151.371094 185.289062 C 151.371094 176.753906 145.277344 173.09375 145.277344 173.09375 L 139.175781 171.875 L 145.277344 170.652344 C 145.277344 170.648438 151.375 166.996094 151.375 158.453125 Z M 151.375 158.453125 " fill-opacity="1" fill-rule="nonzero"/></g><g clip-path="url(#4ea4259731)"><path fill="#151f28" d="M 226.980469 158.453125 L 226.980469 135.285156 C 226.980469 132.117188 225.636719 130.40625 222.101562 130.40625 L 218.511719 130.40625 L 218.511719 119.429688 L 225.765625 119.429688 C 231.984375 119.429688 240.398438 123.207031 240.398438 134.066406 L 240.398438 156.015625 C 240.398438 162.113281 245.28125 165.769531 250.15625 165.769531 C 250.382812 165.769531 250.589844 165.820312 250.761719 165.914062 L 250.761719 177.828125 C 250.585938 177.917969 250.382812 177.96875 250.15625 177.96875 C 245.277344 177.96875 240.398438 181.628906 240.398438 187.722656 L 240.398438 209.679688 C 240.398438 220.535156 231.984375 224.3125 225.765625 224.3125 L 218.515625 224.3125 L 218.515625 213.339844 L 222.105469 213.339844 C 225.640625 213.339844 226.984375 211.632812 226.984375 208.457031 L 226.984375 185.289062 C 226.984375 176.753906 233.082031 173.09375 233.082031 173.09375 L 239.179688 171.875 L 233.082031 170.652344 C 233.082031 170.648438 226.980469 166.996094 226.980469 158.453125 Z M 226.980469 158.453125 " fill-opacity="1" fill-rule="nonzero"/></g><path fill="#ed1212" d="M 220.921875 174.804688 C 221.015625 173.835938 221.058594 172.855469 221.058594 171.871094 C 221.058594 170.878906 221.007812 169.902344 220.921875 168.933594 L 215.78125 168.550781 C 215.621094 167.226562 215.363281 165.929688 215.015625 164.671875 L 219.621094 162.351562 C 219.035156 160.464844 218.277344 158.648438 217.367188 156.929688 L 212.472656 158.546875 C 211.820312 157.398438 211.082031 156.296875 210.273438 155.261719 L 213.636719 151.355469 C 212.382812 149.847656 210.992188 148.457031 209.480469 147.203125 L 205.574219 150.566406 C 204.535156 149.757812 203.4375 149.023438 202.289062 148.371094 L 203.90625 143.472656 C 202.1875 142.566406 200.371094 141.804688 198.484375 141.21875 L 196.164062 145.824219 C 194.902344 145.476562 193.609375 145.222656 192.28125 145.058594 L 191.902344 139.917969 C 190.933594 139.832031 189.957031 139.785156 188.964844 139.785156 C 187.976562 139.785156 187 139.832031 186.03125 139.917969 L 185.648438 145.058594 C 184.324219 145.222656 183.027344 145.476562 181.769531 145.824219 L 179.449219 141.21875 C 177.558594 141.804688 175.746094 142.5625 174.027344 143.472656 L 175.640625 148.371094 C 174.488281 149.023438 173.394531 149.757812 172.359375 150.566406 L 168.449219 147.203125 C 166.945312 148.457031 165.554688 149.847656 164.296875 151.355469 L 167.664062 155.261719 C 166.855469 156.296875 166.121094 157.398438 165.464844 158.546875 L 160.5625 156.929688 C 159.660156 158.648438 158.902344 160.464844 158.316406 162.351562 L 162.921875 164.671875 C 162.574219 165.929688 162.316406 167.226562 162.15625 168.550781 L 157.015625 168.933594 C 156.929688 169.902344 156.878906 170.882812 156.878906 171.871094 C 156.878906 172.859375 156.929688 173.835938 157.015625 174.804688 L 162.15625 175.1875 C 162.316406 176.511719 162.574219 177.808594 162.921875 179.066406 L 158.316406 181.386719 C 158.902344 183.273438 159.660156 185.089844 160.5625 186.808594 L 165.464844 185.195312 C 166.117188 186.347656 166.855469 187.441406 167.664062 188.476562 L 164.296875 192.386719 C 165.546875 193.890625 166.941406 195.28125 168.449219 196.539062 L 172.359375 193.175781 C 173.398438 193.984375 174.492188 194.71875 175.640625 195.371094 L 174.027344 200.273438 C 175.746094 201.175781 177.5625 201.933594 179.449219 202.519531 L 181.769531 197.914062 C 183.027344 198.261719 184.324219 198.519531 185.648438 198.679688 L 186.03125 203.820312 C 187 203.90625 187.976562 203.957031 188.964844 203.957031 C 189.957031 203.957031 190.933594 203.90625 191.902344 203.820312 L 192.28125 198.679688 C 193.609375 198.519531 194.902344 198.261719 196.164062 197.914062 L 198.484375 202.519531 C 200.371094 201.933594 202.1875 201.175781 203.90625 200.273438 L 202.289062 195.371094 C 203.445312 194.71875 204.539062 193.980469 205.578125 193.171875 L 209.488281 196.539062 C 210.992188 195.285156 212.382812 193.894531 213.640625 192.386719 L 210.273438 188.476562 C 211.082031 187.441406 211.816406 186.34375 212.472656 185.195312 L 217.375 186.808594 C 218.277344 185.089844 219.035156 183.273438 219.621094 181.386719 L 215.015625 179.066406 C 215.363281 177.808594 215.621094 176.511719 215.78125 175.1875 Z M 191.109375 151.5625 C 191.109375 150.609375 191.875 149.992188 192.808594 150.179688 C 192.808594 150.179688 197.175781 151.074219 199.992188 152.703125 C 202.808594 154.328125 205.769531 157.664062 205.769531 157.664062 C 206.402344 158.378906 206.246094 159.34375 205.417969 159.820312 L 202.375 161.574219 C 201.550781 162.050781 200.339844 161.875 199.683594 161.191406 C 199.683594 161.191406 198.253906 159.6875 196.527344 158.691406 C 194.804688 157.695312 192.789062 157.210938 192.789062 157.210938 C 191.863281 156.988281 191.105469 156.023438 191.105469 155.074219 L 191.105469 151.5625 Z M 171.953125 157.664062 C 171.953125 157.664062 174.914062 154.328125 177.730469 152.703125 C 180.546875 151.078125 184.914062 150.179688 184.914062 150.179688 C 185.851562 149.992188 186.613281 150.609375 186.613281 151.5625 L 186.613281 155.074219 C 186.613281 156.027344 185.855469 156.988281 184.929688 157.210938 C 184.929688 157.210938 182.914062 157.695312 181.1875 158.691406 C 179.464844 159.6875 178.035156 161.191406 178.035156 161.191406 C 177.375 161.882812 176.167969 162.050781 175.34375 161.582031 L 172.304688 159.828125 C 171.480469 159.351562 171.324219 158.378906 171.953125 157.664062 Z M 168.007812 179.460938 C 168.007812 179.460938 166.597656 175.230469 166.597656 171.980469 C 166.597656 168.722656 168.007812 164.496094 168.007812 164.496094 C 168.308594 163.597656 169.226562 163.242188 170.050781 163.71875 L 173.09375 165.472656 C 173.917969 165.949219 174.371094 167.085938 174.101562 168 C 174.101562 168 173.515625 169.988281 173.515625 171.980469 C 173.515625 173.972656 174.101562 175.957031 174.101562 175.957031 C 174.371094 176.875 173.917969 178.007812 173.09375 178.484375 L 170.050781 180.238281 C 169.234375 180.714844 168.3125 180.367188 168.007812 179.460938 Z M 186.613281 192.394531 C 186.613281 193.347656 185.851562 193.96875 184.914062 193.777344 C 184.914062 193.777344 180.546875 192.878906 177.730469 191.253906 C 174.914062 189.628906 171.953125 186.292969 171.953125 186.292969 C 171.324219 185.578125 171.480469 184.613281 172.304688 184.136719 L 175.347656 182.382812 C 176.171875 181.90625 177.382812 182.082031 178.039062 182.769531 C 178.039062 182.769531 179.46875 184.269531 181.195312 185.265625 C 182.917969 186.261719 184.933594 186.746094 184.933594 186.746094 C 185.859375 186.972656 186.617188 187.933594 186.617188 188.886719 L 186.617188 192.394531 Z M 188.855469 180 C 184.425781 180 180.835938 176.40625 180.835938 171.980469 C 180.835938 167.550781 184.429688 163.957031 188.855469 163.957031 C 193.285156 163.957031 196.878906 167.550781 196.878906 171.980469 C 196.878906 176.40625 193.289062 180 188.855469 180 Z M 205.765625 186.292969 C 205.765625 186.292969 202.804688 189.628906 199.988281 191.253906 C 197.171875 192.878906 192.800781 193.777344 192.800781 193.777344 C 191.867188 193.96875 191.105469 193.34375 191.105469 192.394531 L 191.105469 188.882812 C 191.105469 187.929688 191.863281 186.972656 192.789062 186.746094 C 192.789062 186.746094 194.804688 186.261719 196.523438 185.265625 C 198.25 184.269531 199.679688 182.769531 199.679688 182.769531 C 200.335938 182.078125 201.546875 181.90625 202.371094 182.382812 L 205.414062 184.136719 C 206.238281 184.613281 206.394531 185.578125 205.765625 186.292969 Z M 209.710938 179.460938 C 209.410156 180.363281 208.492188 180.714844 207.667969 180.238281 L 204.625 178.484375 C 203.800781 178.007812 203.347656 176.875 203.617188 175.957031 C 203.617188 175.957031 204.203125 173.972656 204.203125 171.980469 C 204.203125 169.988281 203.617188 168 203.617188 168 C 203.34375 167.085938 203.800781 165.949219 204.625 165.472656 L 207.667969 163.71875 C 208.492188 163.242188 209.410156 163.589844 209.710938 164.496094 C 209.710938 164.496094 211.121094 168.730469 211.121094 171.980469 C 211.117188 175.234375 209.710938 179.460938 209.710938 179.460938 Z M 209.710938 179.460938 " fill-opacity="1" fill-rule="evenodd"/><g clip-path="url(#42ed3f6dce)"><path fill="#949494" d="M 217.144531 129.152344 C 217.183594 128.761719 217.203125 128.359375 217.203125 127.960938 C 217.203125 127.558594 217.183594 127.160156 217.144531 126.769531 L 215.058594 126.617188 C 214.992188 126.078125 214.886719 125.554688 214.746094 125.042969 L 216.617188 124.101562 C 216.378906 123.332031 216.074219 122.597656 215.699219 121.898438 L 213.714844 122.554688 C 213.445312 122.089844 213.152344 121.644531 212.824219 121.222656 L 214.191406 119.636719 C 213.679688 119.023438 213.117188 118.457031 212.503906 117.949219 L 210.917969 119.316406 C 210.496094 118.988281 210.050781 118.6875 209.582031 118.425781 L 210.238281 116.4375 C 209.539062 116.070312 208.804688 115.761719 208.039062 115.523438 L 207.09375 117.390625 C 206.585938 117.246094 206.058594 117.148438 205.523438 117.082031 L 205.371094 114.992188 C 204.976562 114.957031 204.578125 114.9375 204.179688 114.9375 C 203.777344 114.9375 203.378906 114.957031 202.988281 114.992188 L 202.832031 117.082031 C 202.296875 117.148438 201.769531 117.253906 201.261719 117.390625 L 200.316406 115.523438 C 199.550781 115.761719 198.816406 116.066406 198.117188 116.4375 L 198.773438 118.425781 C 198.308594 118.691406 197.863281 118.988281 197.4375 119.316406 L 195.851562 117.949219 C 195.242188 118.457031 194.675781 119.019531 194.164062 119.636719 L 195.535156 121.222656 C 195.203125 121.640625 194.902344 122.089844 194.640625 122.554688 L 192.65625 121.898438 C 192.289062 122.597656 191.976562 123.332031 191.738281 124.101562 L 193.609375 125.042969 C 193.464844 125.554688 193.363281 126.078125 193.296875 126.617188 L 191.210938 126.769531 C 191.175781 127.160156 191.152344 127.558594 191.152344 127.960938 C 191.152344 128.359375 191.171875 128.761719 191.207031 129.152344 L 193.292969 129.304688 C 193.359375 129.84375 193.464844 130.367188 193.601562 130.875 L 191.734375 131.820312 C 191.972656 132.585938 192.277344 133.320312 192.648438 134.023438 L 194.636719 133.363281 C 194.902344 133.832031 195.199219 134.273438 195.527344 134.699219 L 194.160156 136.285156 C 194.671875 136.894531 195.234375 137.460938 195.847656 137.972656 L 197.433594 136.605469 C 197.855469 136.933594 198.300781 137.234375 198.769531 137.496094 L 198.113281 139.484375 C 198.8125 139.851562 199.546875 140.160156 200.3125 140.398438 L 201.257812 138.53125 C 201.765625 138.671875 202.289062 138.773438 202.828125 138.839844 L 202.980469 140.925781 C 203.371094 140.960938 203.773438 140.984375 204.171875 140.984375 C 204.574219 140.984375 204.972656 140.964844 205.363281 140.925781 L 205.515625 138.839844 C 206.054688 138.773438 206.578125 138.667969 207.089844 138.53125 L 208.03125 140.398438 C 208.800781 140.160156 209.535156 139.855469 210.234375 139.484375 L 209.578125 137.496094 C 210.042969 137.230469 210.488281 136.933594 210.910156 136.605469 L 212.5 137.972656 C 213.109375 137.460938 213.675781 136.898438 214.183594 136.285156 L 212.816406 134.699219 C 213.148438 134.277344 213.445312 133.832031 213.707031 133.363281 L 215.695312 134.023438 C 216.0625 133.320312 216.371094 132.585938 216.609375 131.820312 L 214.742188 130.875 C 214.886719 130.367188 214.992188 129.84375 215.050781 129.304688 Z M 204.171875 135.335938 C 200.097656 135.335938 196.792969 132.035156 196.792969 127.957031 C 196.792969 123.882812 200.09375 120.574219 204.171875 120.574219 C 208.246094 120.574219 211.554688 123.875 211.554688 127.957031 C 211.554688 132.035156 208.253906 135.335938 204.171875 135.335938 Z M 204.171875 135.335938 " fill-opacity="1" fill-rule="evenodd"/></g><g clip-path="url(#55511495ad)"><path fill="#949494" d="M 187.671875 217.785156 C 187.707031 217.394531 187.726562 216.992188 187.726562 216.59375 C 187.726562 216.191406 187.707031 215.792969 187.671875 215.402344 L 185.582031 215.25 C 185.515625 214.710938 185.410156 214.1875 185.273438 213.675781 L 187.140625 212.734375 C 186.902344 211.964844 186.597656 211.230469 186.226562 210.53125 L 184.238281 211.1875 C 183.972656 210.722656 183.675781 210.277344 183.347656 209.855469 L 184.714844 208.269531 C 184.207031 207.65625 183.644531 207.089844 183.027344 206.582031 L 181.441406 207.949219 C 181.023438 207.621094 180.574219 207.320312 180.105469 207.058594 L 180.765625 205.070312 C 180.066406 204.703125 179.332031 204.394531 178.5625 204.15625 L 177.621094 206.023438 C 177.109375 205.878906 176.585938 205.78125 176.046875 205.714844 L 175.894531 203.625 C 175.503906 203.589844 175.105469 203.570312 174.703125 203.570312 C 174.304688 203.570312 173.902344 203.589844 173.511719 203.625 L 173.359375 205.714844 C 172.820312 205.78125 172.296875 205.886719 171.785156 206.023438 L 170.84375 204.15625 C 170.074219 204.394531 169.34375 204.699219 168.640625 205.070312 L 169.292969 207.054688 C 168.828125 207.320312 168.382812 207.617188 167.960938 207.945312 L 166.375 206.578125 C 165.761719 207.085938 165.195312 207.648438 164.6875 208.261719 L 166.054688 209.851562 C 165.726562 210.269531 165.425781 210.71875 165.164062 211.183594 L 163.175781 210.527344 C 162.808594 211.226562 162.5 211.960938 162.261719 212.730469 L 164.128906 213.671875 C 163.984375 214.183594 163.886719 214.707031 163.820312 215.246094 L 161.730469 215.398438 C 161.699219 215.789062 161.675781 216.1875 161.675781 216.589844 C 161.675781 216.988281 161.695312 217.390625 161.726562 217.78125 L 163.8125 217.933594 C 163.882812 218.472656 163.984375 218.996094 164.125 219.503906 L 162.253906 220.449219 C 162.492188 221.214844 162.800781 221.949219 163.171875 222.652344 L 165.15625 221.992188 C 165.425781 222.460938 165.71875 222.902344 166.050781 223.328125 L 164.679688 224.914062 C 165.191406 225.523438 165.753906 226.089844 166.367188 226.601562 L 167.957031 225.234375 C 168.375 225.5625 168.824219 225.863281 169.289062 226.125 L 168.632812 228.113281 C 169.332031 228.480469 170.066406 228.789062 170.832031 229.027344 L 171.777344 227.160156 C 172.289062 227.300781 172.8125 227.402344 173.351562 227.46875 L 173.503906 229.554688 C 173.894531 229.589844 174.292969 229.613281 174.695312 229.613281 C 175.09375 229.613281 175.496094 229.59375 175.886719 229.554688 L 176.039062 227.46875 C 176.574219 227.402344 177.101562 227.296875 177.609375 227.160156 L 178.554688 229.027344 C 179.320312 228.789062 180.054688 228.484375 180.753906 228.113281 L 180.097656 226.125 C 180.566406 225.859375 181.007812 225.5625 181.433594 225.234375 L 183.019531 226.601562 C 183.628906 226.089844 184.195312 225.527344 184.707031 224.914062 L 183.339844 223.328125 C 183.667969 222.90625 183.96875 222.460938 184.230469 221.992188 L 186.214844 222.652344 C 186.582031 221.949219 186.894531 221.214844 187.132812 220.449219 L 185.261719 219.503906 C 185.40625 218.996094 185.511719 218.464844 185.574219 217.933594 Z M 174.703125 223.96875 C 170.628906 223.96875 167.320312 220.667969 167.320312 216.589844 C 167.320312 212.515625 170.625 209.207031 174.703125 209.207031 C 178.777344 209.207031 182.085938 212.507812 182.085938 216.589844 C 182.082031 220.667969 178.777344 223.96875 174.703125 223.96875 Z M 174.703125 223.96875 " fill-opacity="1" fill-rule="evenodd"/></g><g fill="#ed1212" fill-opacity="1"><g transform="translate(76.171081, 255.109083)"><g><path d="M 11.265625 0.375 C 9.296875 0.375 7.523438 -0.0390625 5.953125 -0.875 C 4.390625 -1.707031 3.160156 -2.867188 2.265625 -4.359375 C 1.367188 -5.847656 0.921875 -7.53125 0.921875 -9.40625 C 0.921875 -11.289062 1.367188 -12.976562 2.265625 -14.46875 C 3.160156 -15.957031 4.390625 -17.117188 5.953125 -17.953125 C 7.523438 -18.785156 9.296875 -19.203125 11.265625 -19.203125 C 12.984375 -19.203125 14.53125 -18.894531 15.90625 -18.28125 C 17.289062 -17.675781 18.441406 -16.800781 19.359375 -15.65625 L 15.96875 -12.578125 C 14.75 -14.054688 13.269531 -14.796875 11.53125 -14.796875 C 10.507812 -14.796875 9.597656 -14.566406 8.796875 -14.109375 C 8.003906 -13.660156 7.390625 -13.03125 6.953125 -12.21875 C 6.515625 -11.40625 6.296875 -10.46875 6.296875 -9.40625 C 6.296875 -8.351562 6.515625 -7.414062 6.953125 -6.59375 C 7.390625 -5.78125 8.003906 -5.148438 8.796875 -4.703125 C 9.597656 -4.253906 10.507812 -4.03125 11.53125 -4.03125 C 13.269531 -4.03125 14.75 -4.765625 15.96875 -6.234375 L 19.359375 -3.171875 C 18.441406 -2.023438 17.289062 -1.144531 15.90625 -0.53125 C 14.53125 0.0703125 12.984375 0.375 11.265625 0.375 Z M 11.265625 0.375 "/></g></g></g><g fill="#ed1212" fill-opacity="1"><g transform="translate(96.013446, 255.109083)"><g><path d="M 11.375 0.375 C 9.382812 0.375 7.59375 -0.046875 6 -0.890625 C 4.414062 -1.734375 3.171875 -2.894531 2.265625 -4.375 C 1.367188 -5.863281 0.921875 -7.539062 0.921875 -9.40625 C 0.921875 -11.269531 1.367188 -12.945312 2.265625 -14.4375 C 3.171875 -15.925781 4.414062 -17.09375 6 -17.9375 C 7.59375 -18.78125 9.382812 -19.203125 11.375 -19.203125 C 13.363281 -19.203125 15.148438 -18.78125 16.734375 -17.9375 C 18.328125 -17.09375 19.570312 -15.925781 20.46875 -14.4375 C 21.375 -12.945312 21.828125 -11.269531 21.828125 -9.40625 C 21.828125 -7.539062 21.375 -5.863281 20.46875 -4.375 C 19.570312 -2.894531 18.328125 -1.734375 16.734375 -0.890625 C 15.148438 -0.046875 13.363281 0.375 11.375 0.375 Z M 11.375 -4.03125 C 12.320312 -4.03125 13.179688 -4.253906 13.953125 -4.703125 C 14.722656 -5.148438 15.332031 -5.78125 15.78125 -6.59375 C 16.226562 -7.414062 16.453125 -8.351562 16.453125 -9.40625 C 16.453125 -10.46875 16.226562 -11.40625 15.78125 -12.21875 C 15.332031 -13.03125 14.722656 -13.660156 13.953125 -14.109375 C 13.179688 -14.566406 12.320312 -14.796875 11.375 -14.796875 C 10.425781 -14.796875 9.566406 -14.566406 8.796875 -14.109375 C 8.023438 -13.660156 7.414062 -13.03125 6.96875 -12.21875 C 6.519531 -11.40625 6.296875 -10.46875 6.296875 -9.40625 C 6.296875 -8.351562 6.519531 -7.414062 6.96875 -6.59375 C 7.414062 -5.78125 8.023438 -5.148438 8.796875 -4.703125 C 9.566406 -4.253906 10.425781 -4.03125 11.375 -4.03125 Z M 11.375 -4.03125 "/></g></g></g><g fill="#ed1212" fill-opacity="1"><g transform="translate(118.759565, 255.109083)"><g><path d="M 1.875 -18.828125 L 10.78125 -18.828125 C 12.84375 -18.828125 14.671875 -18.441406 16.265625 -17.671875 C 17.859375 -16.898438 19.09375 -15.804688 19.96875 -14.390625 C 20.851562 -12.972656 21.296875 -11.3125 21.296875 -9.40625 C 21.296875 -7.507812 20.851562 -5.851562 19.96875 -4.4375 C 19.09375 -3.019531 17.859375 -1.925781 16.265625 -1.15625 C 14.671875 -0.382812 12.84375 0 10.78125 0 L 1.875 0 Z M 10.5625 -4.25 C 12.175781 -4.25 13.472656 -4.703125 14.453125 -5.609375 C 15.429688 -6.523438 15.921875 -7.789062 15.921875 -9.40625 C 15.921875 -11.019531 15.429688 -12.285156 14.453125 -13.203125 C 13.472656 -14.117188 12.175781 -14.578125 10.5625 -14.578125 L 7.203125 -14.578125 L 7.203125 -4.25 Z M 10.5625 -4.25 "/></g></g></g><g fill="#ed1212" fill-opacity="1"><g transform="translate(140.967953, 255.109083)"><g><path d="M 17 -4.109375 L 17 0 L 1.875 0 L 1.875 -18.828125 L 16.640625 -18.828125 L 16.640625 -14.703125 L 7.15625 -14.703125 L 7.15625 -11.53125 L 15.515625 -11.53125 L 15.515625 -7.5625 L 7.15625 -7.5625 L 7.15625 -4.109375 Z M 17 -4.109375 "/></g></g></g><g fill="#000000" fill-opacity="1"><g transform="translate(159.821624, 255.109083)"><g><path d="M 7.203125 -14.703125 L 7.203125 -10.5625 L 15.515625 -10.5625 L 15.515625 -6.453125 L 7.203125 -6.453125 L 7.203125 0 L 1.875 0 L 1.875 -18.828125 L 16.640625 -18.828125 L 16.640625 -14.703125 Z M 7.203125 -14.703125 "/></g></g></g><g fill="#000000" fill-opacity="1"><g transform="translate(177.082865, 255.109083)"><g><path d="M 14.5 -3.65625 L 6.53125 -3.65625 L 5.0625 0 L -0.375 0 L 7.9375 -18.828125 L 13.171875 -18.828125 L 21.515625 0 L 15.96875 0 Z M 12.9375 -7.578125 L 10.515625 -13.609375 L 8.09375 -7.578125 Z M 12.9375 -7.578125 "/></g></g></g><g fill="#000000" fill-opacity="1"><g transform="translate(198.215783, 255.109083)"><g><path d="M 11.265625 0.375 C 9.296875 0.375 7.523438 -0.0390625 5.953125 -0.875 C 4.390625 -1.707031 3.160156 -2.867188 2.265625 -4.359375 C 1.367188 -5.847656 0.921875 -7.53125 0.921875 -9.40625 C 0.921875 -11.289062 1.367188 -12.976562 2.265625 -14.46875 C 3.160156 -15.957031 4.390625 -17.117188 5.953125 -17.953125 C 7.523438 -18.785156 9.296875 -19.203125 11.265625 -19.203125 C 12.984375 -19.203125 14.53125 -18.894531 15.90625 -18.28125 C 17.289062 -17.675781 18.441406 -16.800781 19.359375 -15.65625 L 15.96875 -12.578125 C 14.75 -14.054688 13.269531 -14.796875 11.53125 -14.796875 C 10.507812 -14.796875 9.597656 -14.566406 8.796875 -14.109375 C 8.003906 -13.660156 7.390625 -13.03125 6.953125 -12.21875 C 6.515625 -11.40625 6.296875 -10.46875 6.296875 -9.40625 C 6.296875 -8.351562 6.515625 -7.414062 6.953125 -6.59375 C 7.390625 -5.78125 8.003906 -5.148438 8.796875 -4.703125 C 9.597656 -4.253906 10.507812 -4.03125 11.53125 -4.03125 C 13.269531 -4.03125 14.75 -4.765625 15.96875 -6.234375 L 19.359375 -3.171875 C 18.441406 -2.023438 17.289062 -1.144531 15.90625 -0.53125 C 14.53125 0.0703125 12.984375 0.375 11.265625 0.375 Z M 11.265625 0.375 "/></g></g></g><g fill="#000000" fill-opacity="1"><g transform="translate(218.058148, 255.109083)"><g><path d="M 5.890625 -14.59375 L 0.109375 -14.59375 L 0.109375 -18.828125 L 16.96875 -18.828125 L 16.96875 -14.59375 L 11.21875 -14.59375 L 11.21875 0 L 5.890625 0 Z M 5.890625 -14.59375 "/></g></g></g><g fill="#000000" fill-opacity="1"><g transform="translate(235.131178, 255.109083)"><g><path d="M 11.375 0.375 C 9.382812 0.375 7.59375 -0.046875 6 -0.890625 C 4.414062 -1.734375 3.171875 -2.894531 2.265625 -4.375 C 1.367188 -5.863281 0.921875 -7.539062 0.921875 -9.40625 C 0.921875 -11.269531 1.367188 -12.945312 2.265625 -14.4375 C 3.171875 -15.925781 4.414062 -17.09375 6 -17.9375 C 7.59375 -18.78125 9.382812 -19.203125 11.375 -19.203125 C 13.363281 -19.203125 15.148438 -18.78125 16.734375 -17.9375 C 18.328125 -17.09375 19.570312 -15.925781 20.46875 -14.4375 C 21.375 -12.945312 21.828125 -11.269531 21.828125 -9.40625 C 21.828125 -7.539062 21.375 -5.863281 20.46875 -4.375 C 19.570312 -2.894531 18.328125 -1.734375 16.734375 -0.890625 C 15.148438 -0.046875 13.363281 0.375 11.375 0.375 Z M 11.375 -4.03125 C 12.320312 -4.03125 13.179688 -4.253906 13.953125 -4.703125 C 14.722656 -5.148438 15.332031 -5.78125 15.78125 -6.59375 C 16.226562 -7.414062 16.453125 -8.351562 16.453125 -9.40625 C 16.453125 -10.46875 16.226562 -11.40625 15.78125 -12.21875 C 15.332031 -13.03125 14.722656 -13.660156 13.953125 -14.109375 C 13.179688 -14.566406 12.320312 -14.796875 11.375 -14.796875 C 10.425781 -14.796875 9.566406 -14.566406 8.796875 -14.109375 C 8.023438 -13.660156 7.414062 -13.03125 6.96875 -12.21875 C 6.519531 -11.40625 6.296875 -10.46875 6.296875 -9.40625 C 6.296875 -8.351562 6.519531 -7.414062 6.96875 -6.59375 C 7.414062 -5.78125 8.023438 -5.148438 8.796875 -4.703125 C 9.566406 -4.253906 10.425781 -4.03125 11.375 -4.03125 Z M 11.375 -4.03125 "/></g></g></g><g fill="#000000" fill-opacity="1"><g transform="translate(257.877296, 255.109083)"><g><path d="M 10.109375 -5 L 7.203125 -5 L 7.203125 0 L 1.875 0 L 1.875 -18.828125 L 10.484375 -18.828125 C 12.191406 -18.828125 13.671875 -18.539062 14.921875 -17.96875 C 16.179688 -17.40625 17.148438 -16.597656 17.828125 -15.546875 C 18.503906 -14.503906 18.84375 -13.273438 18.84375 -11.859375 C 18.84375 -10.492188 18.523438 -9.304688 17.890625 -8.296875 C 17.253906 -7.285156 16.347656 -6.492188 15.171875 -5.921875 L 19.234375 0 L 13.53125 0 Z M 13.46875 -11.859375 C 13.46875 -12.734375 13.191406 -13.410156 12.640625 -13.890625 C 12.085938 -14.378906 11.265625 -14.625 10.171875 -14.625 L 7.203125 -14.625 L 7.203125 -9.109375 L 10.171875 -9.109375 C 11.265625 -9.109375 12.085938 -9.347656 12.640625 -9.828125 C 13.191406 -10.304688 13.46875 -10.984375 13.46875 -11.859375 Z M 13.46875 -11.859375 "/></g></g></g><g fill="#000000" fill-opacity="1"><g transform="translate(277.773435, 255.109083)"><g><path d="M 11.96875 -6.75 L 11.96875 0 L 6.640625 0 L 6.640625 -6.828125 L -0.53125 -18.828125 L 5.078125 -18.828125 L 9.546875 -11.34375 L 14.015625 -18.828125 L 19.171875 -18.828125 Z M 11.96875 -6.75 "/></g></g></g><g fill="#000000" fill-opacity="1"><g transform="translate(129.804898, 269.972443)"><g><path d="M 8.078125 0 L 6.703125 0 L 5.15625 -4.515625 L 3.609375 0 L 2.265625 0 L 0.015625 -6.09375 L 1.359375 -6.09375 L 2.953125 -1.3125 L 4.484375 -6.09375 L 5.84375 -6.09375 L 7.390625 -1.3125 L 8.953125 -6.09375 L 10.296875 -6.09375 Z M 8.078125 0 "/></g></g></g><g fill="#000000" fill-opacity="1"><g transform="translate(140.039456, 269.972443)"><g><path d="M 8.078125 0 L 6.703125 0 L 5.15625 -4.515625 L 3.609375 0 L 2.265625 0 L 0.015625 -6.09375 L 1.359375 -6.09375 L 2.953125 -1.3125 L 4.484375 -6.09375 L 5.84375 -6.09375 L 7.390625 -1.3125 L 8.953125 -6.09375 L 10.296875 -6.09375 Z M 8.078125 0 "/></g></g></g><g fill="#000000" fill-opacity="1"><g transform="translate(150.274014, 269.972443)"><g><path d="M 8.078125 0 L 6.703125 0 L 5.15625 -4.515625 L 3.609375 0 L 2.265625 0 L 0.015625 -6.09375 L 1.359375 -6.09375 L 2.953125 -1.3125 L 4.484375 -6.09375 L 5.84375 -6.09375 L 7.390625 -1.3125 L 8.953125 -6.09375 L 10.296875 -6.09375 Z M 8.078125 0 "/></g></g></g><g fill="#000000" fill-opacity="1"><g transform="translate(160.508571, 269.972443)"><g><path d="M 0.734375 -1.1875 C 0.867188 -1.332031 1.039062 -1.40625 1.25 -1.40625 C 1.457031 -1.40625 1.628906 -1.332031 1.765625 -1.1875 C 1.898438 -1.050781 1.96875 -0.878906 1.96875 -0.671875 C 1.96875 -0.441406 1.898438 -0.253906 1.765625 -0.109375 C 1.628906 0.0351562 1.457031 0.109375 1.25 0.109375 C 1.039062 0.109375 0.867188 0.0351562 0.734375 -0.109375 C 0.597656 -0.253906 0.53125 -0.441406 0.53125 -0.671875 C 0.53125 -0.878906 0.597656 -1.050781 0.734375 -1.1875 Z M 0.734375 -1.1875 "/></g></g></g><g fill="#000000" fill-opacity="1"><g transform="translate(163.007037, 269.972443)"><g><path d="M 3.46875 -6.140625 C 4.570312 -6.140625 5.414062 -5.8125 6 -5.15625 L 5.28125 -4.296875 C 4.820312 -4.765625 4.238281 -4.992188 3.53125 -4.984375 C 3 -4.984375 2.5625 -4.800781 2.21875 -4.4375 C 1.882812 -4.082031 1.71875 -3.613281 1.71875 -3.03125 C 1.71875 -2.457031 1.882812 -1.988281 2.21875 -1.625 C 2.5625 -1.269531 3 -1.09375 3.53125 -1.09375 C 4.3125 -1.09375 4.910156 -1.335938 5.328125 -1.828125 L 6.0625 -1.09375 C 5.488281 -0.332031 4.625 0.046875 3.46875 0.046875 C 2.5625 0.046875 1.820312 -0.234375 1.25 -0.796875 C 0.6875 -1.367188 0.40625 -2.117188 0.40625 -3.046875 C 0.40625 -3.960938 0.6875 -4.707031 1.25 -5.28125 C 1.820312 -5.851562 2.5625 -6.140625 3.46875 -6.140625 Z M 3.46875 -6.140625 "/></g></g></g><g fill="#000000" fill-opacity="1"><g transform="translate(169.470973, 269.972443)"><g><path d="M 3.59375 -6.140625 C 4.53125 -6.140625 5.289062 -5.851562 5.875 -5.28125 C 6.46875 -4.71875 6.765625 -3.972656 6.765625 -3.046875 C 6.765625 -2.128906 6.46875 -1.382812 5.875 -0.8125 C 5.289062 -0.238281 4.53125 0.046875 3.59375 0.046875 C 2.644531 0.046875 1.875 -0.238281 1.28125 -0.8125 C 0.695312 -1.382812 0.40625 -2.128906 0.40625 -3.046875 C 0.40625 -3.972656 0.695312 -4.71875 1.28125 -5.28125 C 1.875 -5.851562 2.644531 -6.140625 3.59375 -6.140625 Z M 3.59375 -5.015625 C 3.039062 -5.015625 2.585938 -4.828125 2.234375 -4.453125 C 1.890625 -4.085938 1.71875 -3.617188 1.71875 -3.046875 C 1.71875 -2.453125 1.890625 -1.972656 2.234375 -1.609375 C 2.585938 -1.242188 3.039062 -1.0625 3.59375 -1.0625 C 4.144531 -1.0625 4.59375 -1.242188 4.9375 -1.609375 C 5.28125 -1.972656 5.453125 -2.453125 5.453125 -3.046875 C 5.453125 -3.617188 5.273438 -4.085938 4.921875 -4.453125 C 4.578125 -4.828125 4.132812 -5.015625 3.59375 -5.015625 Z M 3.59375 -5.015625 "/></g></g></g><g fill="#000000" fill-opacity="1"><g transform="translate(176.634011, 269.972443)"><g><path d="M 6.796875 -8.515625 L 6.796875 0 L 5.46875 0 L 5.46875 -1.046875 C 5.019531 -0.304688 4.304688 0.0625 3.328125 0.0625 C 2.453125 0.0625 1.742188 -0.222656 1.203125 -0.796875 C 0.671875 -1.378906 0.40625 -2.140625 0.40625 -3.078125 C 0.40625 -3.992188 0.671875 -4.734375 1.203125 -5.296875 C 1.734375 -5.867188 2.429688 -6.15625 3.296875 -6.15625 C 4.273438 -6.15625 5 -5.785156 5.46875 -5.046875 L 5.46875 -8.515625 Z M 2.25 -1.59375 C 2.601562 -1.226562 3.050781 -1.046875 3.59375 -1.046875 C 4.144531 -1.046875 4.59375 -1.226562 4.9375 -1.59375 C 5.289062 -1.96875 5.46875 -2.445312 5.46875 -3.03125 C 5.46875 -3.613281 5.289062 -4.09375 4.9375 -4.46875 C 4.59375 -4.84375 4.144531 -5.03125 3.59375 -5.03125 C 3.050781 -5.03125 2.601562 -4.84375 2.25 -4.46875 C 1.90625 -4.09375 1.726562 -3.613281 1.71875 -3.03125 C 1.726562 -2.445312 1.90625 -1.96875 2.25 -1.59375 Z M 2.25 -1.59375 "/></g></g></g><g fill="#000000" fill-opacity="1"><g transform="translate(184.450329, 269.972443)"><g><path d="M 3.484375 -6.140625 C 4.535156 -6.140625 5.296875 -5.820312 5.765625 -5.1875 C 6.234375 -4.5625 6.425781 -3.679688 6.34375 -2.546875 L 1.734375 -2.546875 C 1.835938 -2.066406 2.054688 -1.691406 2.390625 -1.421875 C 2.734375 -1.148438 3.144531 -1.015625 3.625 -1.015625 C 4.3125 -1.015625 4.882812 -1.253906 5.34375 -1.734375 L 6.046875 -0.984375 C 5.421875 -0.296875 4.578125 0.046875 3.515625 0.046875 C 2.578125 0.046875 1.820312 -0.234375 1.25 -0.796875 C 0.6875 -1.367188 0.40625 -2.113281 0.40625 -3.03125 C 0.40625 -3.957031 0.691406 -4.707031 1.265625 -5.28125 C 1.835938 -5.851562 2.578125 -6.140625 3.484375 -6.140625 Z M 1.703125 -3.515625 L 5.1875 -3.515625 C 5.164062 -4.003906 5.003906 -4.390625 4.703125 -4.671875 C 4.398438 -4.953125 4 -5.09375 3.5 -5.09375 C 3.019531 -5.09375 2.617188 -4.953125 2.296875 -4.671875 C 1.984375 -4.390625 1.785156 -4.003906 1.703125 -3.515625 Z M 1.703125 -3.515625 "/></g></g></g><g fill="#000000" fill-opacity="1"><g transform="translate(191.189315, 269.972443)"><g><path d="M 3.359375 -7.421875 C 3.117188 -7.421875 2.921875 -7.347656 2.765625 -7.203125 C 2.609375 -7.066406 2.53125 -6.863281 2.53125 -6.59375 L 2.53125 -5.875 L 4.125 -5.875 L 4.125 -4.890625 L 2.53125 -4.890625 L 2.53125 0 L 1.234375 0 L 1.234375 -4.890625 L 0.421875 -4.890625 L 0.421875 -5.875 L 1.234375 -5.875 L 1.234375 -6.46875 C 1.234375 -7.144531 1.4375 -7.660156 1.84375 -8.015625 C 2.257812 -8.378906 2.753906 -8.5625 3.328125 -8.5625 C 3.859375 -8.5625 4.316406 -8.421875 4.703125 -8.140625 L 4.203125 -7.140625 C 3.941406 -7.328125 3.660156 -7.421875 3.359375 -7.421875 Z M 3.359375 -7.421875 "/></g></g></g><g fill="#000000" fill-opacity="1"><g transform="translate(195.120391, 269.972443)"><g><path d="M 4.640625 0 L 4.640625 -0.75 C 4.203125 -0.207031 3.523438 0.0625 2.609375 0.0625 C 1.960938 0.0625 1.441406 -0.113281 1.046875 -0.46875 C 0.660156 -0.832031 0.46875 -1.285156 0.46875 -1.828125 C 0.46875 -2.390625 0.671875 -2.832031 1.078125 -3.15625 C 1.484375 -3.488281 2.050781 -3.660156 2.78125 -3.671875 L 4.625 -3.671875 L 4.625 -3.859375 C 4.625 -4.242188 4.5 -4.539062 4.25 -4.75 C 4 -4.96875 3.640625 -5.078125 3.171875 -5.078125 C 2.578125 -5.078125 1.972656 -4.875 1.359375 -4.46875 L 0.828125 -5.375 C 1.296875 -5.65625 1.710938 -5.851562 2.078125 -5.96875 C 2.453125 -6.082031 2.910156 -6.140625 3.453125 -6.140625 C 4.234375 -6.140625 4.835938 -5.953125 5.265625 -5.578125 C 5.691406 -5.203125 5.910156 -4.675781 5.921875 -4 L 5.921875 0 Z M 2.890625 -0.984375 C 3.359375 -0.984375 3.753906 -1.09375 4.078125 -1.3125 C 4.398438 -1.53125 4.582031 -1.804688 4.625 -2.140625 L 4.625 -2.703125 L 2.96875 -2.703125 C 2.53125 -2.703125 2.207031 -2.640625 2 -2.515625 C 1.800781 -2.390625 1.703125 -2.179688 1.703125 -1.890625 C 1.703125 -1.617188 1.804688 -1.398438 2.015625 -1.234375 C 2.234375 -1.066406 2.523438 -0.984375 2.890625 -0.984375 Z M 2.890625 -0.984375 "/></g></g></g><g fill="#000000" fill-opacity="1"><g transform="translate(201.83646, 269.972443)"><g><path d="M 3.46875 -6.140625 C 4.570312 -6.140625 5.414062 -5.8125 6 -5.15625 L 5.28125 -4.296875 C 4.820312 -4.765625 4.238281 -4.992188 3.53125 -4.984375 C 3 -4.984375 2.5625 -4.800781 2.21875 -4.4375 C 1.882812 -4.082031 1.71875 -3.613281 1.71875 -3.03125 C 1.71875 -2.457031 1.882812 -1.988281 2.21875 -1.625 C 2.5625 -1.269531 3 -1.09375 3.53125 -1.09375 C 4.3125 -1.09375 4.910156 -1.335938 5.328125 -1.828125 L 6.0625 -1.09375 C 5.488281 -0.332031 4.625 0.046875 3.46875 0.046875 C 2.5625 0.046875 1.820312 -0.234375 1.25 -0.796875 C 0.6875 -1.367188 0.40625 -2.117188 0.40625 -3.046875 C 0.40625 -3.960938 0.6875 -4.707031 1.25 -5.28125 C 1.820312 -5.851562 2.5625 -6.140625 3.46875 -6.140625 Z M 3.46875 -6.140625 "/></g></g></g><g fill="#000000" fill-opacity="1"><g transform="translate(208.300396, 269.972443)"><g><path d="M 4.09375 -1.40625 L 4.421875 -0.390625 C 3.921875 -0.0859375 3.421875 0.0625 2.921875 0.0625 C 2.421875 0.0625 2.007812 -0.0859375 1.6875 -0.390625 C 1.375 -0.691406 1.21875 -1.132812 1.21875 -1.71875 L 1.21875 -4.890625 L 0.359375 -4.890625 L 0.359375 -5.875 L 1.21875 -5.875 L 1.21875 -7.546875 L 2.515625 -7.546875 L 2.515625 -5.875 L 4.328125 -5.875 L 4.328125 -4.890625 L 2.515625 -4.890625 L 2.515625 -1.96875 C 2.515625 -1.65625 2.566406 -1.4375 2.671875 -1.3125 C 2.785156 -1.195312 2.953125 -1.140625 3.171875 -1.140625 C 3.421875 -1.140625 3.726562 -1.226562 4.09375 -1.40625 Z M 4.09375 -1.40625 "/></g></g></g><g fill="#000000" fill-opacity="1"><g transform="translate(212.964967, 269.972443)"><g><path d="M 3.59375 -6.140625 C 4.53125 -6.140625 5.289062 -5.851562 5.875 -5.28125 C 6.46875 -4.71875 6.765625 -3.972656 6.765625 -3.046875 C 6.765625 -2.128906 6.46875 -1.382812 5.875 -0.8125 C 5.289062 -0.238281 4.53125 0.046875 3.59375 0.046875 C 2.644531 0.046875 1.875 -0.238281 1.28125 -0.8125 C 0.695312 -1.382812 0.40625 -2.128906 0.40625 -3.046875 C 0.40625 -3.972656 0.695312 -4.71875 1.28125 -5.28125 C 1.875 -5.851562 2.644531 -6.140625 3.59375 -6.140625 Z M 3.59375 -5.015625 C 3.039062 -5.015625 2.585938 -4.828125 2.234375 -4.453125 C 1.890625 -4.085938 1.71875 -3.617188 1.71875 -3.046875 C 1.71875 -2.453125 1.890625 -1.972656 2.234375 -1.609375 C 2.585938 -1.242188 3.039062 -1.0625 3.59375 -1.0625 C 4.144531 -1.0625 4.59375 -1.242188 4.9375 -1.609375 C 5.28125 -1.972656 5.453125 -2.453125 5.453125 -3.046875 C 5.453125 -3.617188 5.273438 -4.085938 4.921875 -4.453125 C 4.578125 -4.828125 4.132812 -5.015625 3.59375 -5.015625 Z M 3.59375 -5.015625 "/></g></g></g><g fill="#000000" fill-opacity="1"><g transform="translate(220.128005, 269.972443)"><g><path d="M 2.296875 -6.09375 L 2.296875 -4.890625 C 2.710938 -5.722656 3.414062 -6.140625 4.40625 -6.140625 L 4.40625 -4.890625 C 3.800781 -4.921875 3.3125 -4.773438 2.9375 -4.453125 C 2.5625 -4.140625 2.347656 -3.71875 2.296875 -3.1875 L 2.296875 0 L 0.96875 0 L 0.96875 -6.09375 Z M 2.296875 -6.09375 "/></g></g></g><g fill="#000000" fill-opacity="1"><g transform="translate(224.643587, 269.972443)"><g><path d="M 6.140625 -6.09375 L 3.375 0.84375 C 3 1.800781 2.335938 2.28125 1.390625 2.28125 C 0.859375 2.28125 0.390625 2.109375 -0.015625 1.765625 L 0.53125 0.75 C 0.8125 0.945312 1.078125 1.046875 1.328125 1.046875 C 1.742188 1.046875 2.054688 0.816406 2.265625 0.359375 L 2.46875 -0.09375 L -0.0625 -6.09375 L 1.3125 -6.09375 L 3.125 -1.484375 L 4.828125 -6.09375 Z M 6.140625 -6.09375 "/></g></g></g><g fill="#000000" fill-opacity="1"><g transform="translate(230.729304, 269.972443)"><g><path d="M 0.734375 -1.1875 C 0.867188 -1.332031 1.039062 -1.40625 1.25 -1.40625 C 1.457031 -1.40625 1.628906 -1.332031 1.765625 -1.1875 C 1.898438 -1.050781 1.96875 -0.878906 1.96875 -0.671875 C 1.96875 -0.441406 1.898438 -0.253906 1.765625 -0.109375 C 1.628906 0.0351562 1.457031 0.109375 1.25 0.109375 C 1.039062 0.109375 0.867188 0.0351562 0.734375 -0.109375 C 0.597656 -0.253906 0.53125 -0.441406 0.53125 -0.671875 C 0.53125 -0.878906 0.597656 -1.050781 0.734375 -1.1875 Z M 0.734375 -1.1875 "/></g></g></g><g fill="#000000" fill-opacity="1"><g transform="translate(233.22777, 269.972443)"><g><path d="M 4.640625 0 L 4.640625 -0.75 C 4.203125 -0.207031 3.523438 0.0625 2.609375 0.0625 C 1.960938 0.0625 1.441406 -0.113281 1.046875 -0.46875 C 0.660156 -0.832031 0.46875 -1.285156 0.46875 -1.828125 C 0.46875 -2.390625 0.671875 -2.832031 1.078125 -3.15625 C 1.484375 -3.488281 2.050781 -3.660156 2.78125 -3.671875 L 4.625 -3.671875 L 4.625 -3.859375 C 4.625 -4.242188 4.5 -4.539062 4.25 -4.75 C 4 -4.96875 3.640625 -5.078125 3.171875 -5.078125 C 2.578125 -5.078125 1.972656 -4.875 1.359375 -4.46875 L 0.828125 -5.375 C 1.296875 -5.65625 1.710938 -5.851562 2.078125 -5.96875 C 2.453125 -6.082031 2.910156 -6.140625 3.453125 -6.140625 C 4.234375 -6.140625 4.835938 -5.953125 5.265625 -5.578125 C 5.691406 -5.203125 5.910156 -4.675781 5.921875 -4 L 5.921875 0 Z M 2.890625 -0.984375 C 3.359375 -0.984375 3.753906 -1.09375 4.078125 -1.3125 C 4.398438 -1.53125 4.582031 -1.804688 4.625 -2.140625 L 4.625 -2.703125 L 2.96875 -2.703125 C 2.53125 -2.703125 2.207031 -2.640625 2 -2.515625 C 1.800781 -2.390625 1.703125 -2.179688 1.703125 -1.890625 C 1.703125 -1.617188 1.804688 -1.398438 2.015625 -1.234375 C 2.234375 -1.066406 2.523438 -0.984375 2.890625 -0.984375 Z M 2.890625 -0.984375 "/></g></g></g><g fill="#000000" fill-opacity="1"><g transform="translate(239.943839, 269.972443)"><g><path d="M 3.484375 -6.140625 C 4.535156 -6.140625 5.296875 -5.820312 5.765625 -5.1875 C 6.234375 -4.5625 6.425781 -3.679688 6.34375 -2.546875 L 1.734375 -2.546875 C 1.835938 -2.066406 2.054688 -1.691406 2.390625 -1.421875 C 2.734375 -1.148438 3.144531 -1.015625 3.625 -1.015625 C 4.3125 -1.015625 4.882812 -1.253906 5.34375 -1.734375 L 6.046875 -0.984375 C 5.421875 -0.296875 4.578125 0.046875 3.515625 0.046875 C 2.578125 0.046875 1.820312 -0.234375 1.25 -0.796875 C 0.6875 -1.367188 0.40625 -2.113281 0.40625 -3.03125 C 0.40625 -3.957031 0.691406 -4.707031 1.265625 -5.28125 C 1.835938 -5.851562 2.578125 -6.140625 3.484375 -6.140625 Z M 1.703125 -3.515625 L 5.1875 -3.515625 C 5.164062 -4.003906 5.003906 -4.390625 4.703125 -4.671875 C 4.398438 -4.953125 4 -5.09375 3.5 -5.09375 C 3.019531 -5.09375 2.617188 -4.953125 2.296875 -4.671875 C 1.984375 -4.390625 1.785156 -4.003906 1.703125 -3.515625 Z M 1.703125 -3.515625 "/></g></g></g></svg>